<svg height="100%" width="100%" id="svg" viewBox="0 0 1440 500" xmlns="http://www.w3.org/2000/svg" class="transition duration-300 ease-in-out delay-150"><path d="M 0,500 C 0,500 0,166 0,166 C 23.939788789249235,168.6004379143494 47.87957757849847,171.20087582869883 74,159 C 100.12042242150153,146.79912417130117 128.42147847525536,119.79693459955408 157,121 C 185.57852152474464,122.20306540044592 214.4345085204801,151.6113857730848 246,161 C 277.5654914795199,170.3886142269152 311.8404874428242,159.75752230810667 345,175 C 378.1595125571758,190.24247769189333 410.2035417082231,231.35852499448856 432,229 C 453.7964582917769,226.64147500551144 465.34534572428333,180.80837771393905 495,155 C 524.6546542757167,129.19162228606095 572.4150753946438,123.4079641497552 606,133 C 639.5849246053562,142.5920358502448 658.9943526971416,167.55976568704014 684,172 C 709.0056473028584,176.44023431295986 739.6075138167898,160.3529731020842 766,170 C 792.3924861832102,179.6470268979158 814.5755920356988,215.02834190462303 847,207 C 879.4244079643012,198.97165809537697 922.0901180404147,147.53365927942372 946,136 C 969.9098819595853,124.4663407205763 975.0639358026424,152.8370209776822 1000,162 C 1024.9360641973576,171.1629790223178 1069.6541387490158,161.1182568098476 1107,148 C 1144.3458612509842,134.8817431901524 1174.3195092012947,118.68995178292742 1197,109 C 1219.6804907987053,99.31004821707258 1235.0678244458054,96.12193605844263 1262,115 C 1288.9321755541946,133.87806394155737 1327.409193015484,174.8223039833021 1359,187 C 1390.590806984516,199.1776960166979 1415.295403492258,182.58884800834895 1440,166 C 1440,166 1440,500 1440,500 Z" stroke="none" stroke-width="0" fill="#8ed1fc88" class="transition-all duration-300 ease-in-out delay-150"></path><path d="M 0,500 C 0,500 0,333 0,333 C 22.047337477608494,335.8341634770508 44.09467495521699,338.66832695410164 70,332 C 95.90532504478301,325.33167304589836 125.66863765674054,309.1608556606443 154,314 C 182.33136234325946,318.8391443393557 209.23077441782084,344.6882504033211 243,338 C 276.76922558217916,331.3117495966789 317.408264671976,292.0861427260714 344,284 C 370.591735328024,275.9138572739286 383.1361668942751,298.96717869239353 411,311 C 438.8638331057249,323.03282130760647 482.04706775092325,324.0451425043546 512,329 C 541.9529322490768,333.9548574956454 558.675562102032,342.85225129018795 583,343 C 607.324437897968,343.14774870981205 639.2506838409486,334.5458523348936 667,334 C 694.7493161590514,333.4541476651064 718.3217025341735,340.9643393702376 749,353 C 779.6782974658265,365.0356606297624 817.4625060223573,381.5967901841559 844,388 C 870.5374939776427,394.4032098158441 885.8282733763974,390.64849989313876 916,368 C 946.1717266236026,345.35150010686124 991.2244004720535,303.8092102432893 1026,294 C 1060.7755995279465,284.1907897567107 1085.2741247353888,306.11465913370427 1109,308 C 1132.7258752646112,309.88534086629573 1155.6791005863906,291.7321532218937 1181,300 C 1206.3208994136094,308.2678467781063 1234.0094729190487,342.9567279787209 1266,351 C 1297.9905270809513,359.0432720212791 1334.2830077374147,340.4409348632226 1364,333 C 1393.7169922625853,325.5590651367774 1416.8584961312927,329.27953256838873 1440,333 C 1440,333 1440,500 1440,500 Z" stroke="none" stroke-width="0" fill="#8ed1fcff" class="transition-all duration-300 ease-in-out delay-150"></path></svg>