<?xml version="1.0" standalone="no"?>
<svg xmlns:xlink="http://www.w3.org/1999/xlink" id="wave" style="transform:rotate(0deg); transition: 0.3s" viewBox="0 0 1440 410" version="1.1" xmlns="http://www.w3.org/2000/svg"><defs><linearGradient id="sw-gradient-0" x1="0" x2="0" y1="1" y2="0"><stop stop-color="rgba(207.643, 127.787, 120.236, 0.42)" offset="0%"/><stop stop-color="rgba(216.75, 186.982, 39.837, 0.06)" offset="100%"/></linearGradient></defs><path style="transform:translate(0, 0px); opacity:1" fill="url(#sw-gradient-0)" d="M0,205L34.3,211.8C68.6,219,137,232,206,211.8C274.3,191,343,137,411,143.5C480,150,549,219,617,252.8C685.7,287,754,287,823,287C891.4,287,960,287,1029,259.7C1097.1,232,1166,178,1234,177.7C1302.9,178,1371,232,1440,273.3C1508.6,314,1577,342,1646,293.8C1714.3,246,1783,123,1851,116.2C1920,109,1989,219,2057,246C2125.7,273,2194,219,2263,191.3C2331.4,164,2400,164,2469,170.8C2537.1,178,2606,191,2674,177.7C2742.9,164,2811,123,2880,102.5C2948.6,82,3017,82,3086,102.5C3154.3,123,3223,164,3291,191.3C3360,219,3429,232,3497,211.8C3565.7,191,3634,137,3703,129.8C3771.4,123,3840,164,3909,177.7C3977.1,191,4046,178,4114,150.3C4182.9,123,4251,82,4320,95.7C4388.6,109,4457,178,4526,211.8C4594.3,246,4663,246,4731,246C4800,246,4869,246,4903,246L4937.1,246L4937.1,410L4902.9,410C4868.6,410,4800,410,4731,410C4662.9,410,4594,410,4526,410C4457.1,410,4389,410,4320,410C4251.4,410,4183,410,4114,410C4045.7,410,3977,410,3909,410C3840,410,3771,410,3703,410C3634.3,410,3566,410,3497,410C3428.6,410,3360,410,3291,410C3222.9,410,3154,410,3086,410C3017.1,410,2949,410,2880,410C2811.4,410,2743,410,2674,410C2605.7,410,2537,410,2469,410C2400,410,2331,410,2263,410C2194.3,410,2126,410,2057,410C1988.6,410,1920,410,1851,410C1782.9,410,1714,410,1646,410C1577.1,410,1509,410,1440,410C1371.4,410,1303,410,1234,410C1165.7,410,1097,410,1029,410C960,410,891,410,823,410C754.3,410,686,410,617,410C548.6,410,480,410,411,410C342.9,410,274,410,206,410C137.1,410,69,410,34,410L0,410Z"/></svg>