<svg height="100%" width="100%" id="svg" viewBox="0 0 1440 600" xmlns="http://www.w3.org/2000/svg" class="transition duration-300 ease-in-out delay-150"><defs><linearGradient id="gradient"><stop offset="5%" stop-color="#002bdc66"></stop><stop offset="95%" stop-color="#32ded466"></stop></linearGradient></defs><path d="M 0,600 C 0,600 0,150 0,150 C 24.8712945724918,157.61041083698854 49.7425891449836,165.2208216739771 86,165 C 122.2574108550164,164.7791783260229 169.90093799255743,156.7271241410802 202,142 C 234.09906200744257,127.2728758589198 250.65365888478658,105.8706817617021 275,114 C 299.3463411152134,122.1293182382979 331.48442646829614,159.79014881211145 369,152 C 406.51557353170386,144.20985118788855 449.4086352420288,90.96872298985214 481,97 C 512.5913647579712,103.03127701014786 532.8810325635887,168.33495922848002 560,183 C 587.1189674364113,197.66504077151998 621.0672345036162,161.69144009622778 659,152 C 696.9327654963838,142.30855990377222 738.8500294219464,158.8992803866089 772,162 C 805.1499705780536,165.1007196133911 829.532647808598,154.71143835733665 863,142 C 896.467352191402,129.28856164266335 939.019379343662,114.2549661840445 968,118 C 996.980620656338,121.7450338159555 1012.3898348167536,144.2686969064853 1043,164 C 1073.6101651832464,183.7313030935147 1119.421281389324,200.67024619001427 1153,203 C 1186.578718610676,205.32975380998573 1207.9250396259513,193.05031833345768 1239,187 C 1270.0749603740487,180.94968166654232 1310.878560106871,181.12848047615495 1346,176 C 1381.121439893129,170.87151952384505 1410.5607199465644,160.43575976192253 1440,150 C 1440,150 1440,600 1440,600 Z" stroke="none" stroke-width="0" fill="url(#gradient)" class="transition-all duration-300 ease-in-out delay-150"></path><defs><linearGradient id="gradient"><stop offset="5%" stop-color="#002bdc88"></stop><stop offset="95%" stop-color="#32ded488"></stop></linearGradient></defs><path d="M 0,600 C 0,600 0,300 0,300 C 39.12177523896632,320.8414966421374 78.24355047793264,341.6829932842747 106,346 C 133.75644952206736,350.3170067157253 150.14757332723576,338.10952350503857 178,311 C 205.85242667276424,283.89047649496143 245.1661562131241,241.8789126955711 278,257 C 310.8338437868759,272.1210873044289 337.18780182026757,344.37482571267725 370,340 C 402.81219817973243,335.62517428732275 442.0826365058056,254.62178445372007 476,252 C 509.9173634941944,249.37821554627993 538.4816521565101,325.1380364724426 567,347 C 595.5183478434899,368.8619635275574 623.9907548681534,336.82606965650973 657,308 C 690.0092451318466,279.17393034349027 727.5553283708758,253.55768490151874 761,246 C 794.4446716291242,238.44231509848126 823.7879316483433,248.94319073741534 856,252 C 888.2120683516567,255.05680926258466 923.292945035751,250.6695521488199 954,249 C 984.707054964249,247.3304478511801 1011.0402882086523,248.37860066730514 1046,272 C 1080.9597117913477,295.62139933269486 1124.5459021296397,341.8160451819595 1156,349 C 1187.4540978703603,356.1839548180405 1206.7761032727892,324.3572186048571 1239,322 C 1271.2238967272108,319.6427813951429 1316.3496847792028,346.7550803986122 1352,348 C 1387.6503152207972,349.2449196013878 1413.8251576103985,324.6224598006939 1440,300 C 1440,300 1440,600 1440,600 Z" stroke="none" stroke-width="0" fill="url(#gradient)" class="transition-all duration-300 ease-in-out delay-150"></path><defs><linearGradient id="gradient"><stop offset="5%" stop-color="#002bdcff"></stop><stop offset="95%" stop-color="#32ded4ff"></stop></linearGradient></defs><path d="M 0,600 C 0,600 0,450 0,450 C 39.605270163663434,471.21198878255484 79.21054032732687,492.42397756510974 108,500 C 136.78945967267313,507.57602243489026 154.763108854356,501.516078522116 181,490 C 207.236891145644,478.483921477884 241.73702425524914,461.51170834642636 273,443 C 304.26297574475086,424.48829165357364 332.28879412464744,404.43708809217856 373,419 C 413.71120587535256,433.56291190782144 467.1077992461611,482.7399392848593 497,493 C 526.8922007538389,503.2600607151407 533.2800088907084,474.603154768384 561,453 C 588.7199911092916,431.396845231616 637.7721651910055,416.8474416416045 676,417 C 714.2278348089945,417.1525583583955 741.6313303452703,432.007078665198 776,445 C 810.3686696547297,457.992921334802 851.7025134279135,469.1242436976036 880,483 C 908.2974865720865,496.8757563023964 923.5586159430757,513.4959465443876 954,500 C 984.4413840569243,486.50405345561245 1030.0630227997835,442.8919701248464 1066,447 C 1101.9369772002165,451.1080298751536 1128.18929285779,502.93617295622676 1160,500 C 1191.81070714221,497.06382704377324 1229.1798057690564,439.3633380502467 1256,434 C 1282.8201942309436,428.6366619497533 1299.0914840659839,475.61047484278663 1328,487 C 1356.9085159340161,498.38952515721337 1398.454257967008,474.1947625786067 1440,450 C 1440,450 1440,600 1440,600 Z" stroke="none" stroke-width="0" fill="url(#gradient)" class="transition-all duration-300 ease-in-out delay-150"></path></svg>