<svg height="100%" width="100%" id="svg" viewBox="0 0 1440 600" xmlns="http://www.w3.org/2000/svg" class="transition duration-300 ease-in-out delay-150"><path d="M 0,600 C 0,600 0,150 0,150 C 33.940517600795786,174.91033960634883 67.88103520159157,199.82067921269763 99,189 C 130.11896479840843,178.17932078730237 158.41637679442954,131.62762275555826 191,110 C 223.58362320557046,88.37237724444175 260.4534576206903,91.66882976506943 297,114 C 333.5465423793097,136.33117023493057 369.7697927228091,177.6970581841641 398,195 C 426.2302072771909,212.3029418158359 446.4673714880732,205.54293749827423 479,176 C 511.5326285119268,146.45706250172577 556.3607213248981,94.13119182273898 589,104 C 621.6392786751019,113.86880817726102 642.0897432123345,185.93229521076984 670,188 C 697.9102567876655,190.06770478923016 733.2803058257643,122.1396273341818 768,113 C 802.7196941742357,103.8603726658182 836.789033484608,153.50919545250306 873,158 C 909.210966515392,162.49080454749694 947.5635602358045,121.82359085580597 975,112 C 1002.4364397641955,102.17640914419403 1018.956725572174,123.19644112427301 1047,132 C 1075.043274427826,140.803558875727 1114.6095374754998,137.39064464710208 1152,149 C 1189.3904625245002,160.60935535289792 1224.605124525827,187.24098028731868 1258,183 C 1291.394875474173,178.75901971268132 1322.9699644211923,143.6454342036232 1353,133 C 1383.0300355788077,122.35456579637678 1411.5150177894038,136.1772828981884 1440,150 C 1440,150 1440,600 1440,600 Z" stroke="none" stroke-width="0" fill="#0693e366" class="transition-all duration-300 ease-in-out delay-150"></path><path d="M 0,600 C 0,600 0,300 0,300 C 28.980788539201384,292.7327296870932 57.96157707840277,285.4654593741863 86,285 C 114.03842292159723,284.5345406258137 141.13448022559035,290.87089219034783 179,293 C 216.86551977440965,295.12910780965217 265.50050201923597,293.0509718644222 298,289 C 330.49949798076403,284.9490281355778 346.86351169746575,278.9252203519634 376,273 C 405.13648830253425,267.0747796480366 447.04545119090085,261.24814672772413 484,257 C 520.9545488090992,252.75185327227587 552.954683538931,250.08219273714008 585,259 C 617.045316461069,267.9178072628599 649.1358146533753,288.4230823237154 678,291 C 706.8641853466247,293.5769176762846 732.5020578475677,278.2254779679984 765,269 C 797.4979421524323,259.7745220320016 836.8559539563539,256.67500580429083 870,279 C 903.1440460436461,301.32499419570917 930.074126327017,349.0744988148384 957,354 C 983.925873672983,358.9255011851616 1010.8475407355784,321.0269989363555 1042,289 C 1073.1524592644216,256.9730010636445 1108.5357107306697,230.81750543973982 1140,246 C 1171.4642892693303,261.1824945602602 1199.0096163417427,317.7029793046854 1232,336 C 1264.9903836582573,354.2970206953146 1303.425823902359,334.3705773415184 1339,322 C 1374.574176097641,309.6294226584816 1407.2870880488204,304.8147113292408 1440,300 C 1440,300 1440,600 1440,600 Z" stroke="none" stroke-width="0" fill="#0693e388" class="transition-all duration-300 ease-in-out delay-150"></path><path d="M 0,600 C 0,600 0,450 0,450 C 25.482102031832653,414.67031105384785 50.964204063665306,379.34062210769576 86,397 C 121.0357959363347,414.65937789230424 165.62528577717143,485.30782262306474 203,481 C 240.37471422282857,476.69217737693526 270.53465282764915,397.4280874000451 303,400 C 335.46534717235085,402.5719125999549 370.2361029122319,486.97982777675463 397,491 C 423.7638970877681,495.02017222324537 442.52093552342336,418.6526014929362 475,395 C 507.47906447657664,371.3473985070638 553.6801549940748,400.4097662515008 586,417 C 618.3198450059252,433.5902337484992 636.7584445002776,437.70833350106096 670,448 C 703.2415554997224,458.29166649893904 751.2860670048148,474.7568997442552 785,479 C 818.7139329951852,483.2431002557448 838.0972874804633,475.26406752191815 862,472 C 885.9027125195367,468.73593247808185 914.3247830733325,470.1868301680722 949,468 C 983.6752169266675,465.8131698319278 1024.6035802262065,459.9886118057928 1063,449 C 1101.3964197737935,438.0113881942072 1137.2608960218415,421.8587226087566 1164,420 C 1190.7391039781585,418.1412773912434 1208.3528356864274,430.5764977591809 1234,451 C 1259.6471643135726,471.4235022408191 1293.3277612324493,499.8352863545197 1329,501 C 1364.6722387675507,502.1647136454803 1402.3361193837754,476.08235682274017 1440,450 C 1440,450 1440,600 1440,600 Z" stroke="none" stroke-width="0" fill="#0693e3ff" class="transition-all duration-300 ease-in-out delay-150"></path></svg>