<svg height="100%" width="100%" id="svg" viewBox="0 0 1440 600" xmlns="http://www.w3.org/2000/svg" class="transition duration-300 ease-in-out delay-150"><defs><linearGradient id="gradient"><stop offset="5%" stop-color="#32ded466"></stop><stop offset="95%" stop-color="#002bdc66"></stop></linearGradient></defs><path d="M 0,600 C 0,600 0,150 0,150 C 27.98512626471811,156.15404963324687 55.97025252943622,162.3080992664937 87,164 C 118.02974747056378,165.6919007335063 152.10411614697324,162.92165256727193 189,148 C 225.89588385302676,133.07834743272807 265.6132828826708,106.00529046441855 295,101 C 324.3867171173292,95.99470953558145 343.44275232234384,113.05718557505381 371,127 C 398.55724767765616,140.9428144249462 434.6157078279539,151.76596723536622 472,149 C 509.3842921720461,146.23403276463378 548.0944163658407,129.87894548348135 578,143 C 607.9055836341593,156.12105451651865 629.006626708683,198.71825083070843 664,191 C 698.993373291317,183.28174916929157 747.8790767994271,125.24805119368486 783,125 C 818.1209232005729,124.75194880631514 839.4770660936084,182.2895443945521 866,182 C 892.5229339063916,181.7104556054479 924.212658826139,123.59377122810668 954,128 C 983.787341173861,132.40622877189332 1011.6722986018358,199.33537069302113 1050,201 C 1088.3277013981642,202.66462930697887 1137.0981467665183,139.06474599980874 1166,133 C 1194.9018532334817,126.93525400019125 1203.9351143320912,178.4056453077438 1233,199 C 1262.0648856679088,219.5943546922562 1311.1613959051167,209.31267276921605 1349,196 C 1386.8386040948833,182.68732723078395 1413.4193020474418,166.34366361539196 1440,150 C 1440,150 1440,600 1440,600 Z" stroke="none" stroke-width="0" fill="url(#gradient)" class="transition-all duration-300 ease-in-out delay-150" transform="rotate(-180 720 300)"></path><defs><linearGradient id="gradient"><stop offset="5%" stop-color="#32ded488"></stop><stop offset="95%" stop-color="#002bdc88"></stop></linearGradient></defs><path d="M 0,600 C 0,600 0,300 0,300 C 38.68102207547382,290.0084829042129 77.36204415094764,280.01696580842577 112,274 C 146.63795584905236,267.98303419157423 177.23284547168333,265.9406196705098 209,266 C 240.76715452831667,266.0593803294902 273.70657396231906,268.2205555095351 297,292 C 320.29342603768094,315.7794444904649 333.9408586790406,361.17715829135005 367,351 C 400.0591413209594,340.82284170864995 452.52999132151854,275.07081132506465 490,266 C 527.4700086784815,256.92918867493535 549.9391760348855,304.5395964083911 583,306 C 616.0608239651145,307.4604035916089 659.7133045389395,262.77080304137075 687,257 C 714.2866954610605,251.22919695862925 725.2076058093568,284.37719142612576 750,310 C 774.7923941906432,335.62280857387424 813.4562722236334,353.7204312541262 847,342 C 880.5437277763666,330.2795687458738 908.9673052961099,288.74108355736956 943,298 C 977.0326947038901,307.25891644263044 1016.6745065919263,367.3152345163955 1050,353 C 1083.3254934080737,338.6847654836045 1110.334668336185,249.99797837704864 1144,245 C 1177.665331663815,240.00202162295136 1217.9868200633348,318.69285197541 1253,327 C 1288.0131799366652,335.30714802459 1317.7180514104757,273.23061372131144 1348,257 C 1378.2819485895243,240.76938627868856 1409.1409742947621,270.3846931393443 1440,300 C 1440,300 1440,600 1440,600 Z" stroke="none" stroke-width="0" fill="url(#gradient)" class="transition-all duration-300 ease-in-out delay-150" transform="rotate(-180 720 300)"></path><defs><linearGradient id="gradient"><stop offset="5%" stop-color="#32ded4ff"></stop><stop offset="95%" stop-color="#002bdcff"></stop></linearGradient></defs><path d="M 0,600 C 0,600 0,450 0,450 C 40.66965221036567,423.729852757911 81.33930442073134,397.45970551582195 110,407 C 138.66069557926866,416.54029448417805 155.31243452744036,461.89103069462317 184,467 C 212.68756547255964,472.10896930537683 253.4109574695072,436.9761717056856 292,423 C 330.5890425304928,409.0238282943144 367.0437355945308,416.2042824826345 401,423 C 434.9562644054692,429.7957175173655 466.41410015236977,436.20669836377647 497,433 C 527.5858998476302,429.79330163622353 557.2998637959902,416.9689240622596 581,425 C 604.7001362040098,433.0310759377404 622.3864446636695,461.9176053871852 658,465 C 693.6135553363305,468.0823946128148 747.1543575493318,445.360654389 783,436 C 818.8456424506682,426.639345611 836.996125139003,430.63977705681503 860,429 C 883.003874860997,427.36022294318497 910.8611418946563,420.08023738374015 950,422 C 989.1388581053437,423.91976261625985 1039.559307282371,435.03927340822435 1072,424 C 1104.440692717629,412.96072659177565 1118.9016289758592,379.7626689833626 1142,399 C 1165.0983710241408,418.2373310166374 1196.8341768141918,489.9100506583255 1233,498 C 1269.1658231858082,506.0899493416745 1309.7616637673736,450.59712838333553 1345,432 C 1380.2383362326264,413.40287161666447 1410.1191681163132,431.70143580833223 1440,450 C 1440,450 1440,600 1440,600 Z" stroke="none" stroke-width="0" fill="url(#gradient)" class="transition-all duration-300 ease-in-out delay-150" transform="rotate(-180 720 300)"></path></svg>