<?xml version="1.0" standalone="no"?>
<svg xmlns:xlink="http://www.w3.org/1999/xlink" id="wave" style="transform:rotate(0deg); transition: 0.3s" viewBox="0 0 1440 490" version="1.1" xmlns="http://www.w3.org/2000/svg"><defs><linearGradient id="sw-gradient-0" x1="0" x2="0" y1="1" y2="0"><stop stop-color="rgba(207.643, 127.787, 120.236, 0.42)" offset="0%"/><stop stop-color="rgba(216.75, 186.982, 39.837, 0.06)" offset="100%"/></linearGradient></defs><path style="transform:translate(0, 0px); opacity:1" fill="url(#sw-gradient-0)" d="M0,147L20,155.2C40,163,80,180,120,171.5C160,163,200,131,240,155.2C280,180,320,261,360,269.5C400,278,440,212,480,155.2C520,98,560,49,600,98C640,147,680,294,720,343C760,392,800,343,840,343C880,343,920,392,960,375.7C1000,359,1040,278,1080,269.5C1120,261,1160,327,1200,334.8C1240,343,1280,294,1320,228.7C1360,163,1400,82,1440,114.3C1480,147,1520,294,1560,302.2C1600,310,1640,180,1680,114.3C1720,49,1760,49,1800,114.3C1840,180,1880,310,1920,343C1960,376,2000,310,2040,285.8C2080,261,2120,278,2160,285.8C2200,294,2240,294,2280,302.2C2320,310,2360,327,2400,326.7C2440,327,2480,310,2520,310.3C2560,310,2600,327,2640,351.2C2680,376,2720,408,2760,416.5C2800,425,2840,408,2860,400.2L2880,392L2880,490L2860,490C2840,490,2800,490,2760,490C2720,490,2680,490,2640,490C2600,490,2560,490,2520,490C2480,490,2440,490,2400,490C2360,490,2320,490,2280,490C2240,490,2200,490,2160,490C2120,490,2080,490,2040,490C2000,490,1960,490,1920,490C1880,490,1840,490,1800,490C1760,490,1720,490,1680,490C1640,490,1600,490,1560,490C1520,490,1480,490,1440,490C1400,490,1360,490,1320,490C1280,490,1240,490,1200,490C1160,490,1120,490,1080,490C1040,490,1000,490,960,490C920,490,880,490,840,490C800,490,760,490,720,490C680,490,640,490,600,490C560,490,520,490,480,490C440,490,400,490,360,490C320,490,280,490,240,490C200,490,160,490,120,490C80,490,40,490,20,490L0,490Z"/></svg>