<svg height="100%" width="100%" id="svg" viewBox="0 0 1440 400" xmlns="http://www.w3.org/2000/svg" class="transition duration-300 ease-in-out delay-150"><defs><linearGradient id="gradient"><stop offset="5%" stop-color="#002bdc44"></stop><stop offset="95%" stop-color="#32ded444"></stop></linearGradient></defs><path d="M 0,400 C 0,400 0,80 0,80 C 34.92977242436594,89.8695807008823 69.85954484873189,99.7391614017646 94,99 C 118.14045515126811,98.2608385982354 131.49159302943838,86.9129350938239 154,92 C 176.50840697056162,97.0870649061761 208.1740830335147,118.60909822293976 235,106 C 261.8259169664853,93.39090177706024 283.81207483650286,46.65067201441702 312,50 C 340.18792516349714,53.34932798558298 374.5776176204741,106.78821371939217 405,107 C 435.4223823795259,107.21178628060783 461.87745468160074,54.19647310801431 486,51 C 510.12254531839926,47.80352689198569 531.9125636531229,94.42589384855057 557,103 C 582.0874363468771,111.57410615144943 610.4722907059078,82.09995149778342 639,73 C 667.5277092940922,63.90004850221657 696.1982735232458,75.17430016031571 724,86 C 751.8017264767542,96.82569983968429 778.734615201109,107.20284786095377 806,99 C 833.265384798891,90.79715213904623 860.8632656723182,64.01430839586921 889,62 C 917.1367343276818,59.98569160413079 945.8123221096187,82.73991855556936 968,93 C 990.1876778903813,103.26008144443064 1005.8874458892067,101.02601738185336 1030,103 C 1054.1125541107933,104.97398261814664 1086.6378943335549,111.15601191701718 1115,107 C 1143.3621056664451,102.84398808298282 1167.560976776573,88.34993495007787 1193,89 C 1218.439023223427,89.65006504992213 1245.1181985601531,105.44424828267135 1276,102 C 1306.8818014398469,98.55575171732865 1341.9662289828134,75.87307191923676 1370,69 C 1398.0337710171866,62.12692808076324 1419.0168855085933,71.06346404038162 1440,80 C 1440,80 1440,400 1440,400 Z" stroke="none" stroke-width="0" fill="url(#gradient)" class="transition-all duration-300 ease-in-out delay-150"></path><defs><linearGradient id="gradient"><stop offset="5%" stop-color="#002bdc66"></stop><stop offset="95%" stop-color="#32ded466"></stop></linearGradient></defs><path d="M 0,400 C 0,400 0,160 0,160 C 31.69326713225577,176.064770963357 63.38653426451154,192.129541926714 86,183 C 108.61346573548846,173.870458073286 122.14713007420957,139.54660325650093 150,136 C 177.85286992579043,132.45339674349907 220.02494543865015,159.68404504728227 249,165 C 277.97505456134985,170.31595495271773 293.75308817118986,153.7172165543701 317,144 C 340.24691182881014,134.2827834456299 370.9627018765905,131.44708873523737 400,132 C 429.0372981234095,132.55291126476263 456.39610432244797,136.49442850468043 481,150 C 505.60389567755203,163.50557149531957 527.4528808336177,186.57519724604091 551,182 C 574.5471191663823,177.42480275395909 599.7923723430816,145.20478251115594 625,134 C 650.2076276569184,122.79521748884405 675.3776297940559,132.60567270933532 708,141 C 740.6223702059441,149.39432729066468 780.6971084806945,156.37252665150282 811,155 C 841.3028915193055,153.62747334849718 861.8339362831662,143.90422068465338 880,138 C 898.1660637168338,132.09577931534662 913.9671463866408,130.01059060988362 945,133 C 976.0328536133592,135.98940939011638 1022.297478170271,144.05341687581208 1051,141 C 1079.702521829729,137.94658312418792 1090.8429409322753,123.77574188686802 1111,133 C 1131.1570590677247,142.22425811313198 1160.3307581006272,174.8436155767158 1192,176 C 1223.6692418993728,177.1563844232842 1257.8340266652158,146.84979580626882 1286,137 C 1314.1659733347842,127.15020419373118 1336.3331352385096,137.75720119820892 1361,145 C 1385.6668647614904,152.24279880179108 1412.8334323807453,156.12139940089554 1440,160 C 1440,160 1440,400 1440,400 Z" stroke="none" stroke-width="0" fill="url(#gradient)" class="transition-all duration-300 ease-in-out delay-150"></path><defs><linearGradient id="gradient"><stop offset="5%" stop-color="#002bdc88"></stop><stop offset="95%" stop-color="#32ded488"></stop></linearGradient></defs><path d="M 0,400 C 0,400 0,240 0,240 C 18.88870255919197,250.7559074855823 37.77740511838394,261.5118149711646 66,259 C 94.22259488161606,256.4881850288354 131.7790820856562,240.70864760092405 164,233 C 196.2209179143438,225.29135239907595 223.10626653899124,225.6535946251392 246,222 C 268.89373346100876,218.3464053748608 287.79585175837894,210.67697389851924 309,223 C 330.20414824162106,235.32302610148076 353.71032642749304,267.6385097807839 387,263 C 420.28967357250696,258.3614902192161 463.36284253164877,216.76898697834497 492,212 C 520.6371574683512,207.23101302165503 534.8383034459115,239.28554230583637 559,250 C 583.1616965540885,260.7144576941636 617.2839436847055,250.08884379830963 646,242 C 674.7160563152945,233.91115620169037 698.0259218152669,228.35908250092493 723,233 C 747.9740781847331,237.64091749907507 774.6123690542266,252.4748261979907 801,257 C 827.3876309457734,261.5251738020093 853.5246019678265,255.74161270711227 881,258 C 908.4753980321735,260.25838729288773 937.2892230744677,270.5587229735603 962,261 C 986.7107769255323,251.44127702643968 1007.3185057343026,222.02349539864633 1029,214 C 1050.6814942656974,205.97650460135367 1073.436753988322,219.3472954318544 1105,224 C 1136.563246011678,228.6527045681456 1176.9344783124084,224.58732287393596 1209,223 C 1241.0655216875916,221.41267712606404 1264.8253327620437,222.30341307240184 1287,229 C 1309.1746672379563,235.69658692759816 1329.764190639416,248.19902483645657 1355,251 C 1380.235809360584,253.80097516354343 1410.117904680292,246.9004875817717 1440,240 C 1440,240 1440,400 1440,400 Z" stroke="none" stroke-width="0" fill="url(#gradient)" class="transition-all duration-300 ease-in-out delay-150"></path><defs><linearGradient id="gradient"><stop offset="5%" stop-color="#002bdcff"></stop><stop offset="95%" stop-color="#32ded4ff"></stop></linearGradient></defs><path d="M 0,400 C 0,400 0,320 0,320 C 19.65969665992167,329.8899914128518 39.31939331984334,339.7799828257037 68,344 C 96.68060668015666,348.2200171742963 134.3821233805483,346.77006011003704 162,343 C 189.6178766194517,339.22993988996296 207.15211315796356,333.13977673414826 231,333 C 254.84788684203644,332.86022326585174 285.0094239875975,338.6708329533699 314,343 C 342.9905760124025,347.3291670466301 370.81019089164676,350.17689145237233 396,337 C 421.18980910835324,323.82310854762767 443.7498124458154,294.621601237141 470,298 C 496.2501875541846,301.378398762859 526.1905593250917,337.3367035990635 552,348 C 577.8094406749083,358.6632964009365 599.4879502538176,344.0315843666049 626,328 C 652.5120497461824,311.9684156333951 683.8576396596376,294.53695893451714 713,297 C 742.1423603403624,299.46304106548286 769.0814911076325,321.82057989532643 797,326 C 824.9185088923675,330.17942010467357 853.8163959098326,316.1807214841773 880,307 C 906.1836040901674,297.8192785158227 929.6529252530378,293.45653416796443 953,297 C 976.3470747469622,300.54346583203557 999.5719030780167,311.99314184396513 1028,326 C 1056.4280969219833,340.00685815603487 1090.0594624348957,356.5708984561751 1122,349 C 1153.9405375651043,341.4291015438249 1184.1902471823994,309.72326433133446 1208,298 C 1231.8097528176006,286.27673566866554 1249.1795488355078,294.53604421848684 1272,303 C 1294.8204511644922,311.46395578151316 1323.091557475569,320.132558794718 1352,323 C 1380.908442524431,325.867441205282 1410.4542212622155,322.93372060264096 1440,320 C 1440,320 1440,400 1440,400 Z" stroke="none" stroke-width="0" fill="url(#gradient)" class="transition-all duration-300 ease-in-out delay-150"></path></svg>