<?xml version="1.0" standalone="no"?>
<svg xmlns:xlink="http://www.w3.org/1999/xlink" id="wave" style="transform:rotate(0deg); transition: 0.3s" viewBox="0 0 1440 490" version="1.1" xmlns="http://www.w3.org/2000/svg"><defs><linearGradient id="sw-gradient-0" x1="0" x2="0" y1="1" y2="0"><stop stop-color="rgba(207.643, 127.787, 120.236, 0.42)" offset="0%"/><stop stop-color="rgba(216.75, 186.982, 39.837, 0.06)" offset="100%"/></linearGradient></defs><path style="transform:translate(0, 0px); opacity:1" fill="url(#sw-gradient-0)" d="M0,294L20,318.5C40,343,80,392,120,416.5C160,441,200,441,240,408.3C280,376,320,310,360,269.5C400,229,440,212,480,236.8C520,261,560,327,600,334.8C640,343,680,294,720,294C760,294,800,343,840,351.2C880,359,920,327,960,318.5C1000,310,1040,327,1080,285.8C1120,245,1160,147,1200,138.8C1240,131,1280,212,1320,261.3C1360,310,1400,327,1440,334.8C1480,343,1520,343,1560,310.3C1600,278,1640,212,1680,212.3C1720,212,1760,278,1800,277.7C1840,278,1880,212,1920,212.3C1960,212,2000,278,2040,277.7C2080,278,2120,212,2160,220.5C2200,229,2240,310,2280,359.3C2320,408,2360,425,2400,432.8C2440,441,2480,441,2520,400.2C2560,359,2600,278,2640,269.5C2680,261,2720,327,2760,351.2C2800,376,2840,359,2860,351.2L2880,343L2880,490L2860,490C2840,490,2800,490,2760,490C2720,490,2680,490,2640,490C2600,490,2560,490,2520,490C2480,490,2440,490,2400,490C2360,490,2320,490,2280,490C2240,490,2200,490,2160,490C2120,490,2080,490,2040,490C2000,490,1960,490,1920,490C1880,490,1840,490,1800,490C1760,490,1720,490,1680,490C1640,490,1600,490,1560,490C1520,490,1480,490,1440,490C1400,490,1360,490,1320,490C1280,490,1240,490,1200,490C1160,490,1120,490,1080,490C1040,490,1000,490,960,490C920,490,880,490,840,490C800,490,760,490,720,490C680,490,640,490,600,490C560,490,520,490,480,490C440,490,400,490,360,490C320,490,280,490,240,490C200,490,160,490,120,490C80,490,40,490,20,490L0,490Z"/></svg>