<svg height="100%" width="100%" id="svg" viewBox="0 0 1440 600" xmlns="http://www.w3.org/2000/svg" class="transition duration-300 ease-in-out delay-150"><defs><linearGradient id="gradient"><stop offset="5%" stop-color="#0693e366"></stop><stop offset="95%" stop-color="#32ded466"></stop></linearGradient></defs><path d="M 0,600 C 0,600 0,150 0,150 C 23.771905054239873,172.09505833896813 47.54381010847975,194.19011667793626 70,188 C 92.45618989152025,181.80988332206374 113.59666462032087,147.33459162722306 140,130 C 166.40333537967913,112.66540837277692 198.06953141023683,112.47151681317146 225,127 C 251.93046858976317,141.52848318682854 274.1252097387318,170.77934112009112 301,177 C 327.8747902612682,183.22065887990888 359.42962963483603,166.41111870646407 385,156 C 410.57037036516397,145.58888129353593 430.15627172192416,141.57618405405253 456,150 C 481.84372827807584,158.42381594594747 513.9452834774672,179.28414507732575 537,171 C 560.0547165225328,162.71585492267425 574.0625943682071,125.2872356366445 596,125 C 617.9374056317929,124.7127643633555 647.8043390497047,161.5669123760962 674,153 C 700.1956609502953,144.4330876239038 722.7200494329746,90.44511485897064 745,99 C 767.2799505670254,107.55488514102936 789.3154632183966,178.65262818802128 820,185 C 850.6845367816034,191.34737181197872 890.0180976934388,132.94437238894432 919,127 C 947.9819023065612,121.05562761105568 966.6121460078482,167.56988225620145 991,184 C 1015.3878539921518,200.43011774379855 1045.533318275168,186.77609858624984 1070,187 C 1094.466681724832,187.22390141375016 1113.2545808914797,201.32572339879908 1139,200 C 1164.7454191085203,198.67427660120092 1197.4483581589127,181.92100781855382 1222,175 C 1246.5516418410873,168.07899218144618 1262.9519864728686,170.9902453269856 1284,154 C 1305.0480135271314,137.0097546730144 1330.7436959496124,100.11801087350389 1362,107 C 1393.2563040503876,113.88198912649611 1430.073229728682,164.53771117899888 1444,179 C 1457.926770271318,193.46228882100112 1448.9633851356589,171.73114441050058 1440,150 C 1440,150 1440,600 1440,600 Z" stroke="none" stroke-width="0" fill="url(#gradient)" class="transition-all duration-300 ease-in-out delay-150"></path><defs><linearGradient id="gradient"><stop offset="5%" stop-color="#0693e388"></stop><stop offset="95%" stop-color="#32ded488"></stop></linearGradient></defs><path d="M 0,600 C 0,600 0,300 0,300 C 27.935704035468532,278.5335137154197 55.871408070937065,257.0670274308394 84,255 C 112.12859192906294,252.93297256916063 140.45007175172026,270.2654039920621 159,273 C 177.54992824827974,275.7345960079379 186.32830492218193,263.8713566009124 215,276 C 243.67169507781807,288.1286433990876 292.2367085595521,324.24916960428845 317,322 C 341.7632914404479,319.75083039571155 342.72486083960985,279.13196498193383 365,287 C 387.27513916039015,294.86803501806617 430.86384808200864,351.2229704679762 464,346 C 497.13615191799136,340.7770295320238 519.8197468323553,273.97615314616144 543,268 C 566.1802531676447,262.02384685383856 589.8571645885701,316.872416947378 614,333 C 638.1428354114299,349.127583052622 662.7515948133639,326.53417906432657 689,319 C 715.2484051866361,311.46582093567343 743.1364561579741,318.99086679531575 768,310 C 792.8635438420259,301.00913320468425 814.7025805547398,275.5023537544104 841,269 C 867.2974194452602,262.4976462455896 898.0532216230663,274.9997181870427 919,296 C 939.9467783769337,317.0002818129573 951.0845329529947,346.4987734974189 971,334 C 990.9154670470053,321.5012265025811 1019.6086465649553,267.00518782328186 1048,261 C 1076.3913534350447,254.99481217671817 1104.4808807871846,297.4804752094537 1133,306 C 1161.5191192128154,314.5195247905463 1190.4678302863067,289.0729113389033 1214,286 C 1237.5321697136933,282.9270886610967 1255.647798067588,302.2278794349332 1281,310 C 1306.352201932412,317.7721205650668 1338.9409774433416,314.01557092136414 1368,323 C 1397.0590225566584,331.98442907863586 1422.5882921590453,353.70983687961024 1434,352 C 1445.4117078409547,350.29016312038976 1442.7058539204772,325.14508156019485 1440,300 C 1440,300 1440,600 1440,600 Z" stroke="none" stroke-width="0" fill="url(#gradient)" class="transition-all duration-300 ease-in-out delay-150"></path><defs><linearGradient id="gradient"><stop offset="5%" stop-color="#0693e3ff"></stop><stop offset="95%" stop-color="#32ded4ff"></stop></linearGradient></defs><path d="M 0,600 C 0,600 0,450 0,450 C 27.378657223198807,452.724834847852 54.757314446397615,455.44966969570396 76,448 C 97.24268555360239,440.55033030429604 112.3493994376083,422.926156065036 141,435 C 169.6506005623917,447.073843934964 211.84508780316912,488.84570604415205 237,480 C 262.1549121968309,471.15429395584795 270.2702493497153,411.69101975835605 289,416 C 307.7297506502847,420.30898024164395 337.07391479796973,488.3902149224235 368,490 C 398.92608520203027,491.6097850775765 431.43409145840565,426.74812055194985 456,417 C 480.56590854159435,407.25187944805015 497.18971936840774,452.617302869777 517,473 C 536.8102806315923,493.382697130223 559.8070310679637,488.78266796894235 592,491 C 624.1929689320363,493.21733203105765 665.5821563597372,502.2520252544534 694,484 C 722.4178436402628,465.7479747455466 737.8643434930873,420.2092310132438 759,400 C 780.1356565069127,379.7907689867562 806.9604696679136,384.91105069257134 831,400 C 855.0395303320864,415.08894930742866 876.2937778352588,440.1465662164709 900,439 C 923.7062221647412,437.8534337835291 949.864418991052,410.50268444154506 981,396 C 1012.135581008948,381.49731555845494 1048.2485462005334,379.84269601734877 1070,403 C 1091.7514537994666,426.15730398265123 1099.1413962068148,474.12653148905974 1124,496 C 1148.8586037931852,517.8734685109403 1191.1858689722071,513.651178026412 1224,488 C 1256.8141310277929,462.3488219735879 1280.115127904357,415.2687564052916 1299,405 C 1317.884872095643,394.7312435947084 1332.3536194103654,421.2737963524215 1359,440 C 1385.6463805896346,458.7262036475785 1424.4703944541811,469.6360581850224 1440,470 C 1455.5296055458189,470.3639418149776 1447.7648027729094,460.1819709074888 1440,450 C 1440,450 1440,600 1440,600 Z" stroke="none" stroke-width="0" fill="url(#gradient)" class="transition-all duration-300 ease-in-out delay-150"></path></svg>