<?xml version="1.0" standalone="no"?>
<svg id="wave" style="transform:rotate(0deg); transition: 0.3s" viewBox="0 0 1440 360" version="1.1" xmlns="http://www.w3.org/2000/svg"><defs><linearGradient id="sw-gradient-0" x1="0" x2="0" y1="1" y2="0"><stop stop-color="rgba(207.643, 127.787, 120.236, 0.42)" offset="0%"></stop><stop stop-color="rgba(216.75, 186.982, 39.837, 0.06)" offset="100%"></stop></linearGradient></defs><path style="transform:translate(0, 0px); opacity:1" fill="url(#sw-gradient-0)" d="M0,0L20,42C40,84,80,168,120,222C160,276,200,300,240,258C280,216,320,108,360,102C400,96,440,192,480,210C520,228,560,168,600,174C640,180,680,252,720,234C760,216,800,108,840,90C880,72,920,144,960,144C1000,144,1040,72,1080,72C1120,72,1160,144,1200,198C1240,252,1280,288,1320,300C1360,312,1400,300,1440,264C1480,228,1520,168,1560,174C1600,180,1640,252,1680,258C1720,264,1760,204,1800,204C1840,204,1880,264,1920,276C1960,288,2000,252,2040,210C2080,168,2120,120,2160,132C2200,144,2240,216,2280,228C2320,240,2360,192,2400,168C2440,144,2480,144,2520,162C2560,180,2600,216,2640,228C2680,240,2720,228,2760,222C2800,216,2840,216,2860,216L2880,216L2880,360L2860,360C2840,360,2800,360,2760,360C2720,360,2680,360,2640,360C2600,360,2560,360,2520,360C2480,360,2440,360,2400,360C2360,360,2320,360,2280,360C2240,360,2200,360,2160,360C2120,360,2080,360,2040,360C2000,360,1960,360,1920,360C1880,360,1840,360,1800,360C1760,360,1720,360,1680,360C1640,360,1600,360,1560,360C1520,360,1480,360,1440,360C1400,360,1360,360,1320,360C1280,360,1240,360,1200,360C1160,360,1120,360,1080,360C1040,360,1000,360,960,360C920,360,880,360,840,360C800,360,760,360,720,360C680,360,640,360,600,360C560,360,520,360,480,360C440,360,400,360,360,360C320,360,280,360,240,360C200,360,160,360,120,360C80,360,40,360,20,360L0,360Z"></path></svg>